<svg width="200" height="120" viewBox="0 0 200 120" fill="none" xmlns="http://www.w3.org/2000/svg">
<path d="M0 14.4C0 6.4471 6.4471 0 14.4 0H185.6C193.553 0 200 6.4471 200 14.4V105.6C200 113.553 193.553 120 185.6 120H14.4C6.44711 120 0 113.553 0 105.6V14.4Z" fill="#009C3B"/>
<path d="M100 6.79999L183 60L100 113.2L17 60L100 6.79999Z" fill="#FFDF00"/>
<circle cx="100" cy="60" r="35" fill="#002776"/>
<path d="M111.617 45.6L112.088 47.051H113.614L112.38 47.9478L112.851 49.3989L111.617 48.5021L110.382 49.3989L110.854 47.9478L109.62 47.051H111.145L111.617 45.6Z" fill="white"/>
<path d="M71.8168 51L72.2883 52.451H73.814L72.5797 53.3478L73.0511 54.7989L71.8168 53.9021L70.5825 54.7989L71.0539 53.3478L69.8196 52.451H71.3453L71.8168 51Z" fill="white"/>
<path d="M74.8168 65.4L75.2883 66.851H76.814L75.5797 67.7478L76.0511 69.1989L74.8168 68.3021L73.5825 69.1989L74.0539 67.7478L72.8196 66.851H74.3453L74.8168 65.4Z" fill="white"/>
<path d="M86.4168 75.6L86.8883 77.051H88.414L87.1797 77.9478L87.6511 79.3989L86.4168 78.5021L85.1824 79.3989L85.6539 77.9478L84.4196 77.051H85.9453L86.4168 75.6Z" fill="white"/>
<path d="M125.017 69.6L125.488 71.051H127.014L125.78 71.9478L126.251 73.3989L125.017 72.5021L123.782 73.3989L124.254 71.9478L123.02 71.051H124.545L125.017 69.6Z" fill="white"/>
<path d="M124.217 75.6L124.688 77.051H126.214L124.98 77.9478L125.451 79.3989L124.217 78.5021L122.982 79.3989L123.454 77.9478L122.22 77.051H123.745L124.217 75.6Z" fill="white"/>
<path d="M100.217 72.8L100.688 74.251H102.214L100.98 75.1478L101.451 76.5989L100.217 75.7021L98.9824 76.5989L99.4539 75.1478L98.2196 74.251H99.7453L100.217 72.8Z" fill="white"/>
<path d="M100.217 63L100.598 64.1746H101.834L100.834 64.9006L101.216 66.0753L100.217 65.3493L99.2176 66.0753L99.5992 64.9006L98.6 64.1746H99.8351L100.217 63Z" fill="white"/>
<path d="M104.417 66.4L104.798 67.5746H106.034L105.034 68.3006L105.416 69.4753L104.417 68.7493L103.418 69.4753L103.799 68.3006L102.8 67.5746H104.035L104.417 66.4Z" fill="white"/>
<path d="M118.217 80L118.598 81.1746H119.834L118.834 81.9006L119.216 83.0753L118.217 82.3493L117.218 83.0753L117.599 81.9006L116.6 81.1746H117.835L118.217 80Z" fill="white"/>
<path d="M70.4168 68.8L70.7985 69.9746H72.0336L71.0344 70.7006L71.416 71.8753L70.4168 71.1493L69.4176 71.8753L69.7992 70.7006L68.8 69.9746H70.0351L70.4168 68.8Z" fill="white"/>
<path d="M86.8168 59.2L87.1985 60.3746H88.4336L87.4344 61.1006L87.816 62.2753L86.8168 61.5493L85.8176 62.2753L86.1992 61.1006L85.2 60.3746H86.4351L86.8168 59.2Z" fill="white"/>
<path d="M96.8168 67L97.0638 67.7601H97.863L97.2164 68.2298L97.4634 68.9899L96.8168 68.5201L96.1702 68.9899L96.4172 68.2298L95.7706 67.7601H96.5698L96.8168 67Z" fill="white"/>
<path d="M109.817 56.4L110.064 57.1601H110.863L110.216 57.6298L110.463 58.3899L109.817 57.9201L109.17 58.3899L109.417 57.6298L108.771 57.1601H109.57L109.817 56.4Z" fill="white"/>
<path d="M82.2168 70L82.4638 70.7601H83.263L82.6164 71.2298L82.8634 71.9899L82.2168 71.5201L81.5702 71.9899L81.8172 71.2298L81.1706 70.7601H81.9698L82.2168 70Z" fill="white"/>
<path d="M81.0168 73.8L81.2638 74.5601H82.063L81.4164 75.0298L81.6634 75.7899L81.0168 75.3201L80.3702 75.7899L80.6172 75.0298L79.9706 74.5601H80.7698L81.0168 73.8Z" fill="white"/>
<path d="M113.617 78.6L113.864 79.3601H114.663L114.016 79.8298L114.263 80.5899L113.617 80.1201L112.97 80.5899L113.217 79.8298L112.571 79.3601H113.37L113.617 78.6Z" fill="white"/>
<path d="M110.817 81.8L111.064 82.5601H111.863L111.216 83.0298L111.463 83.7899L110.817 83.3201L110.17 83.7899L110.417 83.0298L109.771 82.5601H110.57L110.817 81.8Z" fill="white"/>
<path d="M108.017 77.8L108.264 78.5601H109.063L108.416 79.0298L108.663 79.7899L108.017 79.3201L107.37 79.7899L107.617 79.0298L106.971 78.5601H107.77L108.017 77.8Z" fill="white"/>
<path d="M117.617 77.4L117.864 78.1601H118.663L118.016 78.6298L118.263 79.3899L117.617 78.9201L116.97 79.3899L117.217 78.6298L116.571 78.1601H117.37L117.617 77.4Z" fill="white"/>
<path d="M126.217 73.6L126.464 74.3601H127.263L126.616 74.8298L126.863 75.5899L126.217 75.1201L125.57 75.5899L125.817 74.8298L125.171 74.3601H125.97L126.217 73.6Z" fill="white"/>
<path d="M129.617 70.6L129.864 71.3601H130.663L130.016 71.8298L130.263 72.5899L129.617 72.1201L128.97 72.5899L129.217 71.8298L128.571 71.3601H129.37L129.617 70.6Z" fill="white"/>
<path d="M121.417 78L121.664 78.7601H122.463L121.816 79.2298L122.063 79.9899L121.417 79.5201L120.77 79.9899L121.017 79.2298L120.371 78.7601H121.17L121.417 78Z" fill="white"/>
<path d="M117.817 84.2L118.064 84.9601H118.863L118.216 85.4298L118.463 86.1899L117.817 85.7201L117.17 86.1899L117.417 85.4298L116.771 84.9601H117.57L117.817 84.2Z" fill="white"/>
<path d="M98.6168 69.8L98.774 70.2837H99.2825L98.8711 70.5826L99.0283 71.0663L98.6168 70.7674L98.2054 71.0663L98.3625 70.5826L97.9511 70.2837H98.4596L98.6168 69.8Z" fill="white"/>
<path d="M100.217 86L100.374 86.4837H100.883L100.471 86.7826L100.628 87.2663L100.217 86.9673L99.8054 87.2663L99.9625 86.7826L99.5511 86.4837H100.06L100.217 86Z" fill="white"/>
<path d="M78.2168 64.6L78.374 65.0837H78.8825L78.4711 65.3826L78.6282 65.8663L78.2168 65.5674L77.8053 65.8663L77.9625 65.3826L77.5511 65.0837H78.0596L78.2168 64.6Z" fill="white"/>
<path d="M133.388 70.5308C119.372 57.7756 100.744 50 80.3 50C75.4508 50 70.7038 50.4375 66.0962 51.2751C66.5996 49.3134 67.2687 47.4179 68.0878 45.6049C72.5726 44.8131 77.1881 44.4 81.9 44.4C102.201 44.4 120.71 52.0668 134.692 64.6629C134.424 66.6781 133.984 68.6391 133.388 70.5308Z" fill="white"/>
<path d="M71.8545 46.2252C72.1721 46.1865 72.4533 46.2183 72.6978 46.3207C72.9452 46.4195 73.1457 46.5837 73.2994 46.8131C73.4527 47.0395 73.5499 47.321 73.5909 47.6577C73.632 47.9944 73.6054 48.2926 73.5114 48.5523C73.4169 48.8088 73.2617 49.0163 73.0456 49.1748C72.8324 49.3297 72.567 49.4265 72.2493 49.4652C71.9317 49.504 71.6492 49.4739 71.4018 49.3751C71.154 49.2731 70.9535 49.109 70.8002 48.8827C70.6465 48.6532 70.5492 48.3701 70.5081 48.0334C70.4671 47.6967 70.4938 47.4 70.5883 47.1435C70.6824 46.8838 70.8376 46.6763 71.054 46.521C71.27 46.3625 71.5368 46.2639 71.8545 46.2252ZM71.9329 46.8685C71.7042 46.8963 71.5395 47.0002 71.439 47.1801C71.3384 47.36 71.3076 47.6103 71.3467 47.9312C71.3858 48.252 71.4758 48.4876 71.6166 48.6381C71.7575 48.7886 71.9422 48.8499 72.1709 48.822C72.3997 48.7941 72.5627 48.6905 72.6601 48.511C72.7607 48.3311 72.7914 48.0807 72.7523 47.7599C72.7132 47.4391 72.6233 47.2034 72.4824 47.0529C72.3448 46.9021 72.1616 46.8406 71.9329 46.8685Z" fill="#009C3B"/>
<path d="M76.364 47.8411L75.8706 47.8736L75.9468 49.0279L75.1374 49.0813L74.9287 45.9202L76.4374 45.8206C76.8206 45.7953 77.1201 45.8622 77.3358 46.0211C77.5547 46.1798 77.6749 46.422 77.6964 46.7477C77.7116 46.9776 77.6716 47.1727 77.5763 47.3329C77.4811 47.4931 77.3353 47.6166 77.139 47.7033L78.0255 48.8907L77.1155 48.9508L76.364 47.8411ZM75.8321 47.2893L76.3924 47.2523C76.5681 47.2407 76.6937 47.2004 76.7693 47.1312C76.8449 47.0621 76.8781 46.9573 76.8688 46.8168C76.8597 46.6795 76.8132 46.5815 76.7291 46.5229C76.6451 46.4644 76.5153 46.4409 76.3396 46.4524L75.7793 46.4894L75.8321 47.2893Z" fill="#009C3B"/>
<path d="M80.407 45.6443C80.903 45.6383 81.2838 45.7713 81.5495 46.0433C81.8184 46.3121 81.9559 46.7009 81.9621 47.2096C81.9683 47.7184 81.8402 48.112 81.578 48.3904C81.3189 48.6655 80.9413 48.8061 80.4454 48.8121L79.1015 48.8284L79.0631 45.6606L80.407 45.6443ZM80.3562 48.1891C80.6218 48.1859 80.816 48.1036 80.9389 47.9421C81.0617 47.7806 81.1212 47.5398 81.1174 47.2198C81.1135 46.8999 81.0482 46.6606 80.9215 46.5022C80.7947 46.3437 80.5986 46.2661 80.333 46.2693L79.8962 46.2746L79.9195 48.1944L80.3562 48.1891Z" fill="#009C3B"/>
<path d="M85.6948 48.2517L85.6696 48.8896L83.1419 48.7896L83.2672 45.6241L85.7325 45.7216L85.7072 46.3595L84.0669 46.2946L84.0415 46.9373L85.3461 46.989L85.3224 47.5885L84.0178 47.5369L83.9921 48.1844L85.6948 48.2517Z" fill="#009C3B"/>
<path d="M90.5582 49.2872L89.8321 49.2153L89.9756 47.7679L90.0956 46.8007L90.086 46.7997L89.0679 49.1395L88.4039 49.0737L87.8649 46.5796L87.8553 46.5786L87.7831 47.5506L87.6397 48.9979L86.9088 48.9255L87.2213 45.7729L88.3916 45.8889L88.7293 47.5431L88.8397 48.2294L88.8493 48.2303L89.0966 47.5844L89.7481 46.0234L90.8706 46.1347L90.5582 49.2872Z" fill="#009C3B"/>
<path d="M96.6882 49.6114L96.5699 50.2387L94.0841 49.77L94.6711 46.6569L97.0956 47.114L96.9773 47.7414L95.3641 47.4372L95.2449 48.0693L96.5279 48.3112L96.4168 48.9008L95.1338 48.6589L95.0137 49.2957L96.6882 49.6114Z" fill="#009C3B"/>
<path d="M101.974 48.2496C102.354 48.3531 102.622 48.5207 102.778 48.7522C102.934 48.9807 102.968 49.2585 102.879 49.5858C102.794 49.8976 102.626 50.1121 102.375 50.2295C102.125 50.3437 101.81 50.3491 101.43 50.2455L100.823 50.0801L100.534 51.1406L99.7378 50.9234L100.571 47.867L101.974 48.2496ZM101.464 49.6279C101.637 49.6751 101.773 49.6772 101.87 49.6342C101.972 49.589 102.042 49.497 102.08 49.358C102.117 49.2222 102.103 49.1105 102.037 49.0229C101.975 48.9331 101.858 48.8646 101.685 48.8175L101.204 48.6862L100.983 49.4966L101.464 49.6279Z" fill="#009C3B"/>
<path d="M105.302 51.3292L104.832 51.1733L104.468 52.2711L103.698 52.0153L104.697 49.0089L106.132 49.4857C106.496 49.6068 106.748 49.7816 106.888 50.0102C107.031 50.2398 107.051 50.5094 106.948 50.8192C106.875 51.0378 106.765 51.2034 106.616 51.3159C106.467 51.4283 106.286 51.4877 106.071 51.494L106.445 52.928L105.579 52.6404L105.302 51.3292ZM105.017 50.6176L105.55 50.7947C105.717 50.8502 105.849 50.8602 105.945 50.8247C106.041 50.7892 106.111 50.7046 106.156 50.571C106.199 50.4404 106.193 50.3321 106.137 50.2462C106.081 50.1602 105.97 50.0895 105.803 50.034L105.27 49.8569L105.017 50.6176Z" fill="#009C3B"/>
<path d="M109.93 50.7896C110.228 50.9074 110.459 51.0697 110.625 51.2764C110.796 51.4814 110.893 51.7214 110.919 51.9964C110.945 52.2685 110.896 52.5622 110.771 52.8776C110.646 53.193 110.481 53.4423 110.274 53.6255C110.068 53.8057 109.833 53.9139 109.567 53.9499C109.306 53.9841 109.027 53.9424 108.729 53.8246C108.432 53.7069 108.198 53.5455 108.028 53.3405C107.859 53.1326 107.761 52.8926 107.734 52.6205C107.709 52.3455 107.759 52.0503 107.884 51.7349C108.008 51.4195 108.174 51.1716 108.379 50.9914C108.586 50.8082 108.821 50.7001 109.086 50.6671C109.351 50.631 109.633 50.6719 109.93 50.7896ZM109.692 51.3922C109.477 51.3074 109.283 51.32 109.109 51.43C108.935 51.5399 108.788 51.7452 108.669 52.0457C108.55 52.3462 108.517 52.5962 108.568 52.7957C108.62 52.9952 108.753 53.1373 108.968 53.2221C109.182 53.3069 109.375 53.2937 109.546 53.1825C109.72 53.0725 109.867 52.8673 109.986 52.5668C110.105 52.2662 110.138 52.0163 110.086 51.8168C110.037 51.6185 109.906 51.477 109.692 51.3922Z" fill="#009C3B"/>
<path d="M114.765 54.51L114.044 56.0646L113.521 55.8222L113.657 55.4725C113.373 55.6512 113.04 55.6517 112.656 55.474C112.395 55.3529 112.189 55.1886 112.039 54.9811C111.892 54.7721 111.813 54.531 111.802 54.2579C111.793 53.9819 111.86 53.6885 112.004 53.3779C112.147 53.0702 112.327 52.8329 112.546 52.6662C112.766 52.4965 113.011 52.4019 113.281 52.3825C113.551 52.3631 113.832 52.4214 114.125 52.5574C114.453 52.7095 114.691 52.89 114.837 53.0991C114.984 53.3081 115.055 53.5687 115.051 53.8809L114.232 53.8342C114.263 53.6758 114.247 53.5395 114.183 53.4254C114.12 53.3113 114.017 53.2213 113.875 53.1553C113.654 53.053 113.449 53.0497 113.26 53.1455C113.074 53.2426 112.913 53.4378 112.777 53.731C112.497 54.3348 112.592 54.7458 113.062 54.9639C113.239 55.046 113.401 55.0713 113.546 55.0398C113.694 55.0097 113.803 54.9177 113.875 54.7638L113.895 54.7203L113.181 54.3891L113.415 53.884L114.765 54.51Z" fill="#009C3B"/>
<path d="M117.006 56.2616L116.57 56.0291L116.026 57.0501L115.31 56.6687L116.8 53.8727L118.134 54.5836C118.473 54.7641 118.692 54.9788 118.792 55.2276C118.894 55.4779 118.868 55.7471 118.715 56.0352C118.607 56.2385 118.47 56.3831 118.304 56.4691C118.139 56.555 117.95 56.583 117.737 56.5532L117.865 58.0295L117.06 57.6007L117.006 56.2616ZM116.845 55.5123L117.341 55.7763C117.496 55.8591 117.624 55.891 117.725 55.8722C117.826 55.8533 117.909 55.7817 117.975 55.6574C118.04 55.536 118.052 55.4282 118.012 55.3341C117.971 55.24 117.873 55.1516 117.718 55.0689L117.222 54.8048L116.845 55.5123Z" fill="#009C3B"/>
<path d="M121.245 59.2679L120.916 59.8151L118.748 58.5123L120.379 55.7968L122.494 57.0675L122.165 57.6147L120.758 56.7692L120.427 57.3206L121.546 57.993L121.237 58.5073L120.118 57.8349L119.784 58.3903L121.245 59.2679Z" fill="#009C3B"/>
<path d="M124.88 58.5389C125.13 58.7069 125.317 58.887 125.442 59.0792C125.57 59.2732 125.653 59.5048 125.692 59.7739L125.006 59.96C125.007 59.7683 124.969 59.6017 124.891 59.4602C124.817 59.3179 124.697 59.1914 124.533 59.0806C124.395 58.9877 124.273 58.9401 124.166 58.9379C124.06 58.9357 123.98 58.9744 123.926 59.054C123.881 59.1204 123.883 59.2007 123.932 59.295C123.984 59.3884 124.093 59.5158 124.259 59.6772C124.578 59.9883 124.771 60.2594 124.84 60.4904C124.911 60.7233 124.868 60.9552 124.713 61.1862C124.6 61.3534 124.455 61.4659 124.277 61.5238C124.1 61.5816 123.904 61.5852 123.692 61.5345C123.481 61.4857 123.27 61.3898 123.058 61.2469C122.76 61.0468 122.543 60.8484 122.405 60.6517C122.27 60.4523 122.185 60.2314 122.151 59.9889L122.823 59.7469C122.83 59.9599 122.879 60.1394 122.97 60.2853C123.061 60.4313 123.198 60.5659 123.381 60.6892C123.527 60.7874 123.649 60.8407 123.748 60.8492C123.851 60.8567 123.928 60.822 123.98 60.745C124.021 60.6839 124.014 60.608 123.96 60.5173C123.909 60.4256 123.804 60.3009 123.644 60.1431C123.449 59.9461 123.298 59.7671 123.19 59.606C123.087 59.444 123.03 59.2822 123.019 59.1207C123.011 58.9609 123.062 58.7987 123.173 58.6341C123.284 58.4695 123.427 58.3516 123.602 58.2805C123.78 58.2111 123.978 58.1978 124.196 58.2404C124.418 58.2822 124.646 58.3817 124.88 58.5389Z" fill="#009C3B"/>
<path d="M127.973 60.7048C128.214 60.8849 128.392 61.074 128.507 61.2722C128.625 61.4723 128.697 61.7077 128.723 61.9784L128.028 62.1303C128.039 61.939 128.009 61.7707 127.938 61.6255C127.871 61.4797 127.758 61.3475 127.599 61.2287C127.466 61.1291 127.346 61.0756 127.24 61.0681C127.133 61.0606 127.052 61.0953 126.994 61.1722C126.946 61.2363 126.944 61.3166 126.988 61.4132C127.036 61.5091 127.139 61.6417 127.296 61.811C127.599 62.1375 127.779 62.4178 127.836 62.652C127.895 62.888 127.842 63.1176 127.675 63.3406C127.554 63.5021 127.404 63.6073 127.223 63.6563C127.043 63.7052 126.848 63.6992 126.638 63.6381C126.43 63.579 126.224 63.4728 126.019 63.3195C125.732 63.105 125.524 62.8961 125.397 62.6928C125.271 62.487 125.197 62.2621 125.176 62.0183L125.859 61.8098C125.855 62.0229 125.895 62.2046 125.979 62.3548C126.062 62.5051 126.192 62.6463 126.369 62.7784C126.51 62.8838 126.63 62.9431 126.728 62.9564C126.83 62.969 126.909 62.9381 126.965 62.8638C127.009 62.8048 127.006 62.7287 126.956 62.6353C126.91 62.5413 126.811 62.4116 126.659 62.2461C126.474 62.0397 126.331 61.8534 126.232 61.6872C126.137 61.5203 126.088 61.3559 126.085 61.194C126.085 61.034 126.144 60.8745 126.263 60.7156C126.382 60.5566 126.53 60.446 126.709 60.3836C126.89 60.3231 127.088 60.3195 127.304 60.3729C127.524 60.4256 127.747 60.5363 127.973 60.7048Z" fill="#009C3B"/>
<path d="M131.233 63.2434C131.478 63.4485 131.647 63.6753 131.74 63.9237C131.837 64.1717 131.855 64.4303 131.792 64.6994C131.732 64.9661 131.593 65.2295 131.376 65.4898C131.158 65.7501 130.923 65.9348 130.669 66.0439C130.417 66.1505 130.16 66.1792 129.896 66.1301C129.638 66.0806 129.385 65.9533 129.14 65.7481C128.894 65.5429 128.723 65.3164 128.626 65.0684C128.531 64.8179 128.513 64.5593 128.573 64.2927C128.635 64.0236 128.775 63.7589 128.993 63.4986C129.21 63.2383 129.445 63.0548 129.697 62.9482C129.95 62.8392 130.208 62.8104 130.469 62.8619C130.733 62.911 130.987 63.0382 131.233 63.2434ZM130.817 63.7406C130.64 63.5929 130.452 63.5439 130.252 63.5936C130.052 63.6434 129.848 63.7922 129.641 64.0402C129.434 64.2883 129.324 64.5151 129.31 64.7208C129.297 64.9264 129.378 65.1031 129.555 65.2509C129.732 65.3986 129.919 65.4466 130.117 65.3948C130.317 65.3451 130.52 65.1962 130.728 64.9482C130.935 64.7001 131.045 64.4733 131.059 64.2676C131.074 64.064 130.994 63.8884 130.817 63.7406Z" fill="#009C3B"/>
</svg>
