<svg width="200" height="120" viewBox="0 0 200 120" fill="none" xmlns="http://www.w3.org/2000/svg">
<g clip-path="url(#clip0)">
<path d="M0 14.4C0 6.4471 6.46002 0 14.4289 0H185.571C193.54 0 200 6.4471 200 14.4V105.6C200 113.553 193.54 120 185.571 120H14.4289C6.46002 120 0 113.553 0 105.6V14.4Z" fill="#B22234"/>
<path d="M0.893543 9.40002C0.315676 10.9575 0 12.642 0 14.4V18.6H200V14.4C200 12.642 199.684 10.9575 199.106 9.40002H0.893543Z" fill="white"/>
<path d="M200 27.8H0V37H200V27.8Z" fill="white"/>
<path d="M200 46.2H0V55.4H200V46.2Z" fill="white"/>
<path d="M200 64.6H0V73.8H200V64.6Z" fill="white"/>
<path d="M200 83H0V92.2H200V83Z" fill="white"/>
<path d="M200 101.4H0V105.6C0 107.358 0.315675 109.043 0.893542 110.6H199.106C199.684 109.043 200 107.358 200 105.6V101.4Z" fill="white"/>
<path d="M0 14.4C0 6.4471 6.4471 0 14.4 0H91.2V64.6H0V14.4Z" fill="#3C3B6E"/>
<path d="M14.8 46L16.2369 50.4223H20.8868L17.1249 53.1554L18.5618 57.5777L14.8 54.8446L11.0382 57.5777L12.4751 53.1554L8.71323 50.4223H13.3631L14.8 46Z" fill="white"/>
<path d="M45.6 46L47.0369 50.4223H51.6868L47.9249 53.1554L49.3618 57.5777L45.6 54.8446L41.8382 57.5777L43.2751 53.1554L39.5133 50.4223H44.1631L45.6 46Z" fill="white"/>
<path d="M76.4 46L77.8369 50.4223H82.4868L78.7249 53.1554L80.1618 57.5777L76.4 54.8446L72.6382 57.5777L74.0751 53.1554L70.3132 50.4223H74.9631L76.4 46Z" fill="white"/>
<path d="M30.2 36L31.6369 40.4223H36.2867L32.5249 43.1554L33.9618 47.5777L30.2 44.8446L26.4382 47.5777L27.8751 43.1554L24.1132 40.4223H28.7631L30.2 36Z" fill="white"/>
<path d="M61 36L62.4369 40.4223H67.0868L63.3249 43.1554L64.7618 47.5777L61 44.8446L57.2382 47.5777L58.6751 43.1554L54.9132 40.4223H59.5631L61 36Z" fill="white"/>
<path d="M14.8 26L16.2369 30.4223H20.8868L17.1249 33.1554L18.5618 37.5777L14.8 34.8446L11.0382 37.5777L12.4751 33.1554L8.71323 30.4223H13.3631L14.8 26Z" fill="white"/>
<path d="M45.6 26L47.0369 30.4223H51.6868L47.9249 33.1554L49.3618 37.5777L45.6 34.8446L41.8382 37.5777L43.2751 33.1554L39.5133 30.4223H44.1631L45.6 26Z" fill="white"/>
<path d="M76.4 26L77.8369 30.4223H82.4868L78.7249 33.1554L80.1618 37.5777L76.4 34.8446L72.6382 37.5777L74.0751 33.1554L70.3132 30.4223H74.9631L76.4 26Z" fill="white"/>
<path d="M30.2 16L31.6369 20.4223H36.2867L32.5249 23.1554L33.9618 27.5777L30.2 24.8446L26.4382 27.5777L27.8751 23.1554L24.1132 20.4223H28.7631L30.2 16Z" fill="white"/>
<path d="M61 16L62.4369 20.4223H67.0868L63.3249 23.1554L64.7618 27.5777L61 24.8446L57.2382 27.5777L58.6751 23.1554L54.9132 20.4223H59.5631L61 16Z" fill="white"/>
<path d="M14.8 6L16.2369 10.4223H20.8868L17.1249 13.1554L18.5618 17.5777L14.8 14.8446L11.0382 17.5777L12.4751 13.1554L8.71323 10.4223H13.3631L14.8 6Z" fill="white"/>
<path d="M45.6 6L47.0369 10.4223H51.6868L47.9249 13.1554L49.3618 17.5777L45.6 14.8446L41.8382 17.5777L43.2751 13.1554L39.5133 10.4223H44.1631L45.6 6Z" fill="white"/>
<path d="M76.4 6L77.8369 10.4223H82.4868L78.7249 13.1554L80.1618 17.5777L76.4 14.8446L72.6382 17.5777L74.0751 13.1554L70.3132 10.4223H74.9631L76.4 6Z" fill="white"/>
</g>
<defs>
<clipPath id="clip0">
<rect width="200" height="120" fill="white"/>
</clipPath>
</defs>
</svg>
