<svg width="73" height="48" viewBox="0 0 73 48" fill="none" xmlns="http://www.w3.org/2000/svg">
<circle cx="31" cy="18" r="16" fill="#32E0C4"/>
<path d="M11.256 9.924C11.144 10.108 11.028 10.244 10.908 10.332C10.796 10.412 10.648 10.452 10.464 10.452C10.288 10.452 10.096 10.392 9.888 10.272C9.688 10.144 9.452 10.008 9.18 9.864C8.908 9.72 8.596 9.588 8.244 9.468C7.892 9.34 7.48 9.276 7.008 9.276C6.176 9.276 5.552 9.464 5.136 9.84C4.72 10.208 4.512 10.692 4.512 11.292C4.512 11.676 4.624 11.996 4.848 12.252C5.08 12.5 5.38 12.716 5.748 12.9C6.124 13.084 6.548 13.248 7.02 13.392C7.492 13.536 7.976 13.696 8.472 13.872C8.968 14.04 9.452 14.24 9.924 14.472C10.396 14.704 10.816 14.996 11.184 15.348C11.56 15.7 11.86 16.132 12.084 16.644C12.316 17.148 12.432 17.764 12.432 18.492C12.432 19.284 12.292 20.028 12.012 20.724C11.74 21.412 11.344 22.016 10.824 22.536C10.304 23.048 9.66 23.452 8.892 23.748C8.132 24.044 7.268 24.192 6.3 24.192C5.748 24.192 5.196 24.136 4.644 24.024C4.1 23.912 3.572 23.756 3.06 23.556C2.556 23.356 2.08 23.116 1.632 22.836C1.184 22.556 0.792 22.244 0.456 21.9L1.512 20.196C1.6 20.068 1.716 19.964 1.86 19.884C2.004 19.796 2.156 19.752 2.316 19.752C2.532 19.752 2.76 19.832 3 19.992C3.24 20.152 3.516 20.328 3.828 20.52C4.14 20.712 4.5 20.888 4.908 21.048C5.324 21.208 5.82 21.288 6.396 21.288C7.236 21.288 7.884 21.096 8.34 20.712C8.804 20.328 9.036 19.756 9.036 18.996C9.036 18.556 8.92 18.2 8.688 17.928C8.464 17.656 8.168 17.428 7.8 17.244C7.432 17.06 7.012 16.904 6.54 16.776C6.068 16.64 5.584 16.492 5.088 16.332C4.592 16.172 4.108 15.98 3.636 15.756C3.164 15.532 2.744 15.236 2.376 14.868C2.008 14.5 1.708 14.044 1.476 13.5C1.252 12.956 1.14 12.28 1.14 11.472C1.14 10.824 1.268 10.196 1.524 9.588C1.78 8.98 2.156 8.44 2.652 7.968C3.148 7.496 3.756 7.116 4.476 6.828C5.204 6.54 6.036 6.396 6.972 6.396C8.02 6.396 8.988 6.56 9.876 6.888C10.772 7.208 11.528 7.656 12.144 8.232L11.256 9.924ZM17.7347 6.108V16.26H18.2867C18.4947 16.26 18.6587 16.232 18.7787 16.176C18.8987 16.112 19.0187 16 19.1387 15.84L21.8747 12.192C22.0107 12.008 22.1627 11.868 22.3307 11.772C22.5067 11.676 22.7267 11.628 22.9907 11.628H26.0147L22.4627 16.14C22.1827 16.516 21.8587 16.812 21.4907 17.028C21.6747 17.156 21.8347 17.304 21.9707 17.472C22.1067 17.64 22.2387 17.828 22.3667 18.036L26.1947 24H23.2187C22.9627 24 22.7427 23.96 22.5587 23.88C22.3747 23.792 22.2227 23.64 22.1027 23.424L19.3187 18.876C19.2067 18.684 19.0907 18.56 18.9707 18.504C18.8507 18.448 18.6707 18.42 18.4307 18.42H17.7347V24H14.4227V6.108H17.7347ZM38.9963 11.628L32.3242 27.324C32.2203 27.548 32.0923 27.716 31.9403 27.828C31.7963 27.94 31.5643 27.996 31.2443 27.996H28.7843L31.1243 23.004L26.1562 11.628H29.0603C29.3243 11.628 29.5283 11.688 29.6723 11.808C29.8163 11.928 29.9203 12.068 29.9843 12.228L32.3363 18.144C32.4243 18.376 32.5003 18.612 32.5643 18.852C32.6363 19.084 32.7043 19.316 32.7682 19.548C32.9123 19.076 33.0763 18.604 33.2603 18.132L35.4443 12.228C35.5083 12.052 35.6243 11.908 35.7923 11.796C35.9603 11.684 36.1443 11.628 36.3443 11.628H38.9963Z" fill="white"/>
<path d="M16.016 34.8V38.808H20.728V40.072H16.016V45H14.464V33.536H21.528V34.8H16.016ZM25.8878 36.768C26.4798 36.768 27.0131 36.8667 27.4878 37.064C27.9624 37.2613 28.3678 37.5413 28.7038 37.904C29.0398 38.2667 29.2958 38.7067 29.4718 39.224C29.6531 39.736 29.7438 40.3093 29.7438 40.944C29.7438 41.584 29.6531 42.16 29.4718 42.672C29.2958 43.184 29.0398 43.6213 28.7038 43.984C28.3678 44.3467 27.9624 44.6267 27.4878 44.824C27.0131 45.016 26.4798 45.112 25.8878 45.112C25.2904 45.112 24.7518 45.016 24.2718 44.824C23.7971 44.6267 23.3918 44.3467 23.0558 43.984C22.7198 43.6213 22.4611 43.184 22.2798 42.672C22.1038 42.16 22.0158 41.584 22.0158 40.944C22.0158 40.3093 22.1038 39.736 22.2798 39.224C22.4611 38.7067 22.7198 38.2667 23.0558 37.904C23.3918 37.5413 23.7971 37.2613 24.2718 37.064C24.7518 36.8667 25.2904 36.768 25.8878 36.768ZM25.8878 44C26.6878 44 27.2851 43.7333 27.6798 43.2C28.0744 42.6613 28.2718 41.912 28.2718 40.952C28.2718 39.9867 28.0744 39.2347 27.6798 38.696C27.2851 38.1573 26.6878 37.888 25.8878 37.888C25.4824 37.888 25.1278 37.9573 24.8238 38.096C24.5251 38.2347 24.2744 38.4347 24.0718 38.696C23.8744 38.9573 23.7251 39.28 23.6238 39.664C23.5278 40.0427 23.4798 40.472 23.4798 40.952C23.4798 41.912 23.6771 42.6613 24.0718 43.2C24.4718 43.7333 25.0771 44 25.8878 44ZM32.9019 38.52C33.1579 37.9653 33.4725 37.5333 33.8459 37.224C34.2192 36.9093 34.6752 36.752 35.2139 36.752C35.3845 36.752 35.5472 36.7707 35.7019 36.808C35.8619 36.8453 36.0032 36.904 36.1259 36.984L36.0219 38.048C35.9899 38.1813 35.9099 38.248 35.7819 38.248C35.7072 38.248 35.5979 38.232 35.4539 38.2C35.3099 38.168 35.1472 38.152 34.9659 38.152C34.7099 38.152 34.4805 38.1893 34.2779 38.264C34.0805 38.3387 33.9019 38.4507 33.7419 38.6C33.5872 38.744 33.4459 38.9253 33.3179 39.144C33.1952 39.3573 33.0832 39.6027 32.9819 39.88V45H31.5499V36.896H32.3659C32.5205 36.896 32.6272 36.9253 32.6859 36.984C32.7445 37.0427 32.7845 37.144 32.8059 37.288L32.9019 38.52ZM42.4739 40.064C42.4739 39.7333 42.4259 39.432 42.3299 39.16C42.2392 38.8827 42.1032 38.6453 41.9219 38.448C41.7459 38.2453 41.5299 38.0907 41.2739 37.984C41.0179 37.872 40.7272 37.816 40.4019 37.816C39.7192 37.816 39.1779 38.016 38.7779 38.416C38.3832 38.8107 38.1379 39.36 38.0419 40.064H42.4739ZM43.6259 43.864C43.4499 44.0773 43.2392 44.264 42.9939 44.424C42.7485 44.5787 42.4845 44.7067 42.2019 44.808C41.9245 44.9093 41.6365 44.984 41.3379 45.032C41.0392 45.0853 40.7432 45.112 40.4499 45.112C39.8899 45.112 39.3725 45.0187 38.8979 44.832C38.4285 44.64 38.0205 44.3627 37.6739 44C37.3325 43.632 37.0659 43.1787 36.8739 42.64C36.6819 42.1013 36.5859 41.4827 36.5859 40.784C36.5859 40.2187 36.6712 39.6907 36.8419 39.2C37.0179 38.7093 37.2685 38.2853 37.5939 37.928C37.9192 37.5653 38.3165 37.2827 38.7859 37.08C39.2552 36.872 39.7832 36.768 40.3699 36.768C40.8552 36.768 41.3032 36.8507 41.7139 37.016C42.1299 37.176 42.4872 37.4107 42.7859 37.72C43.0899 38.024 43.3272 38.4027 43.4979 38.856C43.6685 39.304 43.7539 39.816 43.7539 40.392C43.7539 40.616 43.7299 40.7653 43.6819 40.84C43.6339 40.9147 43.5432 40.952 43.4099 40.952H37.9939C38.0099 41.464 38.0792 41.9093 38.2019 42.288C38.3299 42.6667 38.5059 42.984 38.7299 43.24C38.9539 43.4907 39.2205 43.68 39.5299 43.808C39.8392 43.9307 40.1859 43.992 40.5699 43.992C40.9272 43.992 41.2339 43.952 41.4899 43.872C41.7512 43.7867 41.9752 43.696 42.1619 43.6C42.3485 43.504 42.5032 43.416 42.6259 43.336C42.7539 43.2507 42.8632 43.208 42.9539 43.208C43.0712 43.208 43.1619 43.2533 43.2259 43.344L43.6259 43.864ZM51.143 38.336C51.1003 38.3947 51.0577 38.44 51.015 38.472C50.9723 38.504 50.9137 38.52 50.839 38.52C50.759 38.52 50.671 38.488 50.575 38.424C50.479 38.3547 50.359 38.28 50.215 38.2C50.0763 38.12 49.903 38.048 49.695 37.984C49.4923 37.9147 49.2417 37.88 48.943 37.88C48.543 37.88 48.191 37.952 47.887 38.096C47.583 38.2347 47.327 38.4373 47.119 38.704C46.9163 38.9707 46.7617 39.2933 46.655 39.672C46.5537 40.0507 46.503 40.4747 46.503 40.944C46.503 41.4347 46.559 41.872 46.671 42.256C46.783 42.6347 46.9403 42.9547 47.143 43.216C47.351 43.472 47.599 43.6693 47.887 43.808C48.1803 43.9413 48.5083 44.008 48.871 44.008C49.2177 44.008 49.503 43.968 49.727 43.888C49.951 43.8027 50.135 43.7093 50.279 43.608C50.4283 43.5067 50.551 43.416 50.647 43.336C50.7483 43.2507 50.847 43.208 50.943 43.208C51.0603 43.208 51.151 43.2533 51.215 43.344L51.615 43.864C51.439 44.0827 51.239 44.2693 51.015 44.424C50.791 44.5787 50.5483 44.7093 50.287 44.816C50.031 44.9173 49.7617 44.992 49.479 45.04C49.1963 45.088 48.9083 45.112 48.615 45.112C48.1083 45.112 47.6363 45.0187 47.199 44.832C46.767 44.6453 46.391 44.376 46.071 44.024C45.751 43.6667 45.5003 43.2293 45.319 42.712C45.1377 42.1947 45.047 41.6053 45.047 40.944C45.047 40.3413 45.1297 39.784 45.295 39.272C45.4657 38.76 45.711 38.32 46.031 37.952C46.3563 37.5787 46.7537 37.288 47.223 37.08C47.6977 36.872 48.2417 36.768 48.855 36.768C49.4257 36.768 49.927 36.8613 50.359 37.048C50.7963 37.2293 51.183 37.488 51.519 37.824L51.143 38.336ZM57.5356 41.352C56.8796 41.3733 56.3196 41.4267 55.8556 41.512C55.397 41.592 55.021 41.6987 54.7276 41.832C54.4396 41.9653 54.229 42.1227 54.0956 42.304C53.9676 42.4853 53.9036 42.688 53.9036 42.912C53.9036 43.1253 53.9383 43.3093 54.0076 43.464C54.077 43.6187 54.1703 43.7467 54.2876 43.848C54.4103 43.944 54.5516 44.016 54.7116 44.064C54.877 44.1067 55.053 44.128 55.2396 44.128C55.4903 44.128 55.7196 44.104 55.9276 44.056C56.1356 44.0027 56.3303 43.928 56.5116 43.832C56.6983 43.736 56.8743 43.6213 57.0396 43.488C57.2103 43.3547 57.3756 43.2027 57.5356 43.032V41.352ZM52.9356 38.04C53.3836 37.608 53.8663 37.2853 54.3836 37.072C54.901 36.8587 55.4743 36.752 56.1036 36.752C56.557 36.752 56.9596 36.8267 57.3116 36.976C57.6636 37.1253 57.9596 37.3333 58.1996 37.6C58.4396 37.8667 58.621 38.1893 58.7436 38.568C58.8663 38.9467 58.9276 39.3627 58.9276 39.816V45H58.2956C58.157 45 58.0503 44.9787 57.9756 44.936C57.901 44.888 57.8423 44.7973 57.7996 44.664L57.6396 43.896C57.4263 44.0933 57.2183 44.2693 57.0156 44.424C56.813 44.5733 56.5996 44.7013 56.3756 44.808C56.1516 44.9093 55.9116 44.9867 55.6556 45.04C55.405 45.0987 55.125 45.128 54.8156 45.128C54.501 45.128 54.205 45.0853 53.9276 45C53.6503 44.9093 53.4076 44.776 53.1996 44.6C52.997 44.424 52.8343 44.2027 52.7116 43.936C52.5943 43.664 52.5356 43.344 52.5356 42.976C52.5356 42.656 52.6236 42.3493 52.7996 42.056C52.9756 41.7573 53.261 41.4933 53.6556 41.264C54.0503 41.0347 54.565 40.848 55.1996 40.704C55.8343 40.5547 56.613 40.4693 57.5356 40.448V39.816C57.5356 39.1867 57.3996 38.712 57.1276 38.392C56.8556 38.0667 56.4583 37.904 55.9356 37.904C55.5836 37.904 55.2876 37.9493 55.0476 38.04C54.813 38.1253 54.6076 38.224 54.4316 38.336C54.261 38.4427 54.1116 38.5413 53.9836 38.632C53.861 38.7173 53.7383 38.76 53.6156 38.76C53.5196 38.76 53.437 38.736 53.3676 38.688C53.2983 38.6347 53.2396 38.5707 53.1916 38.496L52.9356 38.04ZM65.8168 38.232C65.7528 38.3493 65.6541 38.408 65.5208 38.408C65.4408 38.408 65.3501 38.3787 65.2488 38.32C65.1474 38.2613 65.0221 38.1973 64.8728 38.128C64.7288 38.0533 64.5554 37.9867 64.3528 37.928C64.1501 37.864 63.9101 37.832 63.6328 37.832C63.3928 37.832 63.1768 37.864 62.9848 37.928C62.7928 37.9867 62.6274 38.0693 62.4888 38.176C62.3554 38.2827 62.2514 38.408 62.1768 38.552C62.1074 38.6907 62.0728 38.8427 62.0728 39.008C62.0728 39.216 62.1314 39.3893 62.2488 39.528C62.3714 39.6667 62.5314 39.7867 62.7288 39.888C62.9261 39.9893 63.1501 40.08 63.4008 40.16C63.6514 40.2347 63.9074 40.3173 64.1688 40.408C64.4354 40.4933 64.6941 40.5893 64.9448 40.696C65.1954 40.8027 65.4194 40.936 65.6168 41.096C65.8141 41.256 65.9714 41.4533 66.0888 41.688C66.2114 41.9173 66.2728 42.1947 66.2728 42.52C66.2728 42.8933 66.2061 43.24 66.0728 43.56C65.9394 43.8747 65.7421 44.1493 65.4808 44.384C65.2194 44.6133 64.8994 44.7947 64.5208 44.928C64.1421 45.0613 63.7048 45.128 63.2088 45.128C62.6434 45.128 62.1314 45.0373 61.6728 44.856C61.2141 44.6693 60.8248 44.432 60.5048 44.144L60.8408 43.6C60.8834 43.5307 60.9341 43.4773 60.9928 43.44C61.0514 43.4027 61.1261 43.384 61.2168 43.384C61.3128 43.384 61.4141 43.4213 61.5208 43.496C61.6274 43.5707 61.7554 43.6533 61.9048 43.744C62.0594 43.8347 62.2461 43.9173 62.4648 43.992C62.6834 44.0667 62.9554 44.104 63.2808 44.104C63.5581 44.104 63.8008 44.0693 64.0087 44C64.2168 43.9253 64.3901 43.8267 64.5288 43.704C64.6674 43.5813 64.7688 43.44 64.8328 43.28C64.9021 43.12 64.9368 42.9493 64.9368 42.768C64.9368 42.544 64.8754 42.36 64.7528 42.216C64.6354 42.0667 64.4781 41.9413 64.2808 41.84C64.0834 41.7333 63.8568 41.6427 63.6008 41.568C63.3501 41.488 63.0914 41.4053 62.8248 41.32C62.5634 41.2347 62.3048 41.1387 62.0488 41.032C61.7981 40.92 61.5741 40.7813 61.3768 40.616C61.1794 40.4507 61.0194 40.248 60.8968 40.008C60.7794 39.7627 60.7208 39.4667 60.7208 39.12C60.7208 38.8107 60.7848 38.5147 60.9128 38.232C61.0408 37.944 61.2274 37.6933 61.4728 37.48C61.7181 37.2613 62.0194 37.088 62.3768 36.96C62.7341 36.832 63.1421 36.768 63.6008 36.768C64.1341 36.768 64.6114 36.8533 65.0328 37.024C65.4594 37.1893 65.8274 37.4187 66.1368 37.712L65.8168 38.232ZM70.5066 45.128C69.8666 45.128 69.3733 44.9493 69.0266 44.592C68.6853 44.2347 68.5146 43.72 68.5146 43.048V38.088H67.5386C67.4533 38.088 67.3813 38.064 67.3226 38.016C67.264 37.9627 67.2346 37.8827 67.2346 37.776V37.208L68.5626 37.04L68.8906 34.536C68.9066 34.456 68.9413 34.392 68.9946 34.344C69.0533 34.2907 69.128 34.264 69.2186 34.264H69.9386V37.056H72.2826V38.088H69.9386V42.952C69.9386 43.2933 70.0213 43.5467 70.1866 43.712C70.352 43.8773 70.5653 43.96 70.8266 43.96C70.976 43.96 71.104 43.9413 71.2106 43.904C71.3226 43.8613 71.4186 43.816 71.4986 43.768C71.5786 43.72 71.6453 43.6773 71.6986 43.64C71.7573 43.5973 71.808 43.576 71.8506 43.576C71.9253 43.576 71.992 43.6213 72.0506 43.712L72.4666 44.392C72.2213 44.6213 71.9253 44.8027 71.5786 44.936C71.232 45.064 70.8746 45.128 70.5066 45.128Z" fill="#EEEEEE"/>
</svg>
